<?xml version="1.0" encoding="UTF-8"?>
<!-- Generator: Adobe Illustrator 19.2.0, SVG Export Plug-In . SVG Version: 6.00 Build 0)  -->
<svg version="1.1" id="Layer_1" xmlns="http://www.w3.org/2000/svg" xmlns:xlink="http://www.w3.org/1999/xlink" x="0px" y="0px" viewBox="0 0 70 50" style="enable-background:new 0 0 70 50;" xml:space="preserve">
<style type="text/css">
	.st0{display:none;enable-background:new    ;}
	.st1{font-family:'NasalizationRg-Regular';}
	.st2{font-size:22.7581px;}
	.st3{display:none;}
	.st4{display:inline;fill:#666666;}
	.st5{display:none;fill:#666666;enable-background:new    ;}
	.st6{font-family:'BebasKai';}
	.st7{font-size:16.9793px;}
	.st8{fill:#999999;}
	.st9{fill:#CC0000;}
	.st10{fill:#FFFFFF;}
	.st11{enable-background:new    ;}
</style>
<text transform="matrix(1 0 0 1 -30.125 31.4082)" class="st0 st1 st2">Argon</text>
<g class="st3">
	<path class="st4" d="M36.5,20.5v0.7L35,21.3v-0.6c0-0.8-0.3-1.2-0.9-1.2c-0.6,0-0.9,0.4-0.9,1v5.6c0,0.7,0.3,1,0.9,1   s0.9-0.4,0.9-1.2v-1.8h-0.9v-1.4h2.4v3.4c0,1.6-0.9,2.5-2.5,2.5c-1.5,0-2.4-0.9-2.4-2.5v-5.6c0-1.6,0.9-2.5,2.4-2.5   C35.6,18,36.5,19,36.5,20.5z"/>
	<path class="st4" d="M42.8,28.5l-0.3-2.3h-1.7l-0.3,2.3h-1.6l1.8-10.3h2l1.8,10.3H42.8z M40.9,24.7h1.3l-0.6-4.3l0,0L40.9,24.7z"/>
	<path class="st4" d="M49.2,18.2c1.7,0,2.6,0.9,2.6,2.6v5.1c0,1.7-0.9,2.6-2.6,2.6H47V18.2H49.2z M48.5,27.1h0.6   c0.8,0,1.1-0.4,1.1-1.3v-4.9c0-0.9-0.3-1.3-1.1-1.3h-0.6V27.1z"/>
	<path class="st4" d="M59.5,20.5v0.7L58,21.3v-0.6c0-0.8-0.3-1.2-0.9-1.2c-0.6,0-0.9,0.4-0.9,1v5.6c0,0.7,0.3,1,0.9,1   c0.6,0,0.9-0.4,0.9-1.2v-1.8h-0.9v-1.4h2.4v3.4c0,1.6-0.9,2.5-2.5,2.5c-1.5,0-2.4-0.9-2.4-2.5v-5.6c0-1.6,0.9-2.5,2.4-2.5   C58.6,18,59.5,19,59.5,20.5z"/>
	<path class="st4" d="M64,19.6v2.9h2.3V24H64v3.1h2.8v1.4h-4.4V18.2h4.4v1.4H64z"/>
	<path class="st4" d="M72.1,19.7v8.8h-1.6v-8.8h-1.7v-1.5h4.9v1.5H72.1z"/>
	<path class="st4" d="M80.4,20.4v0.3l-1.5,0.1v-0.4c0-0.6-0.3-0.9-0.8-0.9s-0.8,0.3-0.8,0.9v0.1c0,0.6,0.3,1.1,1.3,2   c1.4,1.2,2,2.1,2,3.3v0.5c0,1.5-0.9,2.3-2.4,2.3s-2.4-0.8-2.4-2.3v-0.7l1.5-0.1v0.7c0,0.6,0.3,1,0.9,1s0.9-0.3,0.9-1v-0.3   c0-0.6-0.3-1.2-1.4-2c-1.4-1.2-1.9-2.1-1.9-3.3v-0.2c0-1.5,0.8-2.3,2.3-2.3C79.5,18,80.4,18.9,80.4,20.4z"/>
</g>
<text transform="matrix(1 0 0 1 41.249 31.0498)" class="st5 st6 st7">GADGETS</text>
<g>
	<rect x="2.7" y="31.2" class="st8" width="64.6" height="0.2"/>
</g>
<g class="st3">
	<path class="st4" d="M3.1,38H6v4.8c-0.8,0.3-1.7,0.5-2.6,0.5c-1.1,0-1.9-0.4-2.5-1.2S0,40.1,0,38.5C0,37,0.3,35.8,1,35   s1.6-1.3,2.8-1.3c0.7,0,1.5,0.2,2.1,0.6l-0.6,1.4c-0.5-0.3-1-0.5-1.5-0.5c-0.7,0-1.2,0.3-1.6,0.9c-0.4,0.6-0.6,1.4-0.6,2.4   c0,1.1,0.1,1.9,0.4,2.4c0.3,0.6,0.7,0.8,1.2,0.8c0.3,0,0.6,0,0.9-0.1v-2.1h-1V38z"/>
	<path class="st4" d="M11.9,43.2l-0.5-2.4H8.9l-0.5,2.4H6.6l2.3-9.4h2.4l2.3,9.4C13.6,43.2,11.9,43.2,11.9,43.2z M11,39.3l-0.5-2.2   c0-0.1-0.1-0.5-0.2-1c-0.1-0.5-0.2-0.9-0.2-1.1c-0.1,0.4-0.1,0.8-0.2,1.2c-0.1,0.4-0.3,1.5-0.7,3L11,39.3L11,39.3z"/>
	<path class="st4" d="M20.4,38.4c0,1.5-0.3,2.7-0.9,3.5s-1.5,1.2-2.7,1.2h-2.3v-9.4H17c1.1,0,1.9,0.4,2.5,1.2   C20.1,35.7,20.4,37,20.4,38.4z M18.6,38.5c0-2.1-0.6-3.1-1.7-3.1h-0.7v6.3h0.6c0.6,0,1.1-0.3,1.4-0.8   C18.5,40.3,18.6,39.5,18.6,38.5z"/>
	<path class="st4" d="M24.6,38h2.9v4.8c-0.8,0.3-1.7,0.5-2.6,0.5c-1.1,0-1.9-0.4-2.5-1.2s-0.9-2-0.9-3.6c0-1.5,0.3-2.7,1-3.5   c0.7-0.9,1.6-1.3,2.8-1.3c0.7,0,1.5,0.2,2.1,0.6l-0.6,1.4c-0.5-0.3-1-0.5-1.5-0.5c-0.7,0-1.2,0.3-1.6,0.9c-0.4,0.6-0.6,1.4-0.6,2.4   c0,1.1,0.1,1.9,0.4,2.4c0.3,0.6,0.7,0.8,1.2,0.8c0.3,0,0.6,0,0.9-0.1v-2.1h-1.2V38H24.6z"/>
	<path class="st4" d="M33.1,43.2h-4.2v-9.4h4.2v1.5h-2.5v2.2h2.3V39h-2.3v2.6h2.5V43.2z"/>
	<path class="st4" d="M37.4,43.2h-1.7v-7.9h-1.8v-1.5h5.3v1.5h-1.8V43.2z"/>
	<path class="st4" d="M48.1,40.6c0,0.9-0.2,1.5-0.7,2c-0.4,0.5-1,0.7-1.8,0.7s-1.5-0.2-2.1-0.5v-1.7c0.7,0.5,1.3,0.7,1.9,0.7   c0.3,0,0.6-0.1,0.8-0.3s0.3-0.4,0.3-0.8c0-0.3-0.1-0.6-0.3-0.9c-0.2-0.3-0.5-0.5-1-0.9c-0.4-0.3-0.7-0.5-0.9-0.8s-0.4-0.5-0.5-0.9   c-0.1-0.3-0.2-0.7-0.2-1.1c0-0.8,0.2-1.4,0.7-1.9c0.4-0.5,1-0.7,1.8-0.7c0.7,0,1.4,0.2,2.1,0.6l-0.6,1.4c-0.2-0.1-0.4-0.2-0.6-0.3   c-0.2-0.1-0.5-0.1-0.7-0.1c-0.3,0-0.5,0.1-0.7,0.3s-0.2,0.4-0.2,0.8c0,0.3,0.1,0.6,0.3,0.8s0.5,0.5,1,0.8c0.6,0.4,1,0.8,1.3,1.3   C48,39.6,48.1,40.1,48.1,40.6z"/>
	<path class="st4" d="M55.1,43.2h-1.7v-4.1H51v4.1h-1.7v-9.4H51v3.7h2.3v-3.7H55L55.1,43.2L55.1,43.2z"/>
	<path class="st4" d="M63.2,38.5c0,1.6-0.3,2.7-0.9,3.6c-0.6,0.8-1.4,1.2-2.5,1.2s-1.9-0.4-2.5-1.2s-0.9-2-0.9-3.6s0.3-2.7,0.9-3.6   c0.6-0.8,1.4-1.2,2.5-1.2s1.9,0.4,2.5,1.2C62.9,35.7,63.2,36.9,63.2,38.5z M58.2,38.5c0,1.1,0.1,1.9,0.4,2.4   c0.3,0.6,0.7,0.8,1.2,0.8c1.1,0,1.6-1.1,1.6-3.3s-0.5-3.3-1.6-3.3c-0.5,0-0.9,0.3-1.2,0.8C58.4,36.6,58.2,37.4,58.2,38.5z"/>
	<path class="st4" d="M69.7,36.7c0,1-0.3,1.8-0.8,2.3s-1.2,0.8-2.2,0.8h-0.4v3.4h-1.7v-9.4H67C68.8,33.8,69.7,34.8,69.7,36.7z    M66.3,38.3h0.3c0.4,0,0.7-0.1,1-0.4c0.2-0.2,0.3-0.6,0.3-1.2c0-0.5-0.1-0.9-0.3-1.1c-0.2-0.2-0.5-0.4-0.9-0.4h-0.4V38.3z"/>
</g>
<g>
	<path class="st9" d="M63.8,27.5H6.2c-2.8,0-5.1-2.3-5.1-5.1V5.6c0-2.8,2.3-5.1,5.1-5.1h57.5c2.8,0,5.1,2.3,5.1,5.1v16.8   C68.9,25.1,66.6,27.5,63.8,27.5z"/>
	<g>
		<g>
			<g>
				<g>
					<path class="st10" d="M42,20.5h3.3v0.7H43v0.6h2.2v0.7H43v1.1h-1V20.5z"/>
				</g>
				<g>
					<path class="st10" d="M48.6,20.5c0.7,0,1.1,0,1.4,0c0.4,0,0.6,0.2,0.7,0.5c0.1,0.2,0.1,0.5,0.1,1s0,0.8-0.1,1       c-0.1,0.3-0.3,0.5-0.7,0.5c-0.3,0-0.7,0-1.4,0s-1.1,0-1.4,0c-0.4,0-0.6-0.2-0.7-0.5c-0.1-0.2-0.1-0.6-0.1-1c0-0.5,0-0.8,0.1-1       c0.1-0.3,0.3-0.5,0.7-0.5C47.5,20.5,47.9,20.5,48.6,20.5z M48.6,21.3c-0.5,0-0.8,0-0.9,0c-0.1,0-0.2,0.1-0.2,0.2       s-0.1,0.3-0.1,0.6c0,0.2,0,0.3,0,0.4c0,0.2,0.2,0.2,0.3,0.3c0.1,0,0.4,0,0.8,0c0.4,0,0.6,0,0.8,0c0.1,0,0.2,0,0.3-0.1       c0.1,0,0.1-0.1,0.1-0.2s0-0.2,0-0.4c0-0.2,0-0.4,0-0.5s0-0.2-0.1-0.2c0-0.1-0.1-0.1-0.2-0.1C49.3,21.3,49,21.3,48.6,21.3z"/>
				</g>
				<g>
					<path class="st10" d="M52.1,23.6v-3.1h2.3c0.5,0,0.9,0,1,0s0.2,0,0.3,0.1s0.2,0.2,0.2,0.3c0,0.1,0.1,0.3,0.1,0.6       c0,0.2,0,0.4,0,0.5s-0.1,0.2-0.2,0.3c-0.1,0.1-0.2,0.1-0.4,0.1c0.2,0,0.3,0.1,0.4,0.2c0,0.1,0.1,0.1,0.1,0.2s0,0.3,0,0.5v0.3       H55v-0.2c0-0.2,0-0.3,0-0.4s0-0.1-0.1-0.2l-0.1-0.1c-0.1,0-0.2,0-0.4,0h-1.3v0.8h-1V23.6z M53.1,22h1.3c0.2,0,0.4,0,0.4,0h0.1       l0.1-0.1c0-0.1,0-0.1,0-0.2s0-0.2,0-0.2c0-0.1-0.1-0.1-0.1-0.1h-0.1c0,0-0.2,0-0.4,0h-1.3V22z"/>
				</g>
				<g>
					<path class="st10" d="M57.2,20.5H61v0.8h-1.4v2.3h-1v-2.3h-1.4C57.2,21.3,57.2,20.5,57.2,20.5z"/>
				</g>
				<g>
					<path class="st10" d="M62.1,20.5h1.2l1,1.2l1-1.2h1.2l-1.7,2v1.1h-1v-1.1L62.1,20.5z"/>
				</g>
			</g>
		</g>
		<g>
			<g>
				<g>
					<path class="st10" d="M36.8,7.6c1.4,0,2.4,0.4,3.1,1.2c0.7,0.8,1.1,2,1.1,3.7v6.6c0,0.8-0.1,1.5-0.2,2.1       c-0.2,0.6-0.4,1-0.7,1.4s-0.8,0.6-1.3,0.8c-0.6,0.2-1.2,0.2-2,0.2h-11v-2.2h10.7c0.9,0,1.4-0.2,1.8-0.5c0.3-0.4,0.5-1,0.5-1.8       v-0.5h-5c-1.5,0-2.7-0.5-3.6-1.4s-1.3-2.3-1.3-4.1s0.4-3.2,1.3-4.1c0.9-0.9,2.1-1.3,3.6-1.3L36.8,7.6L36.8,7.6z M31,13.1       c0,1.2,0.2,2,0.7,2.5s1.2,0.8,2.2,0.8h4.8v-4c0-0.9-0.2-1.6-0.6-2c-0.4-0.4-1-0.6-2-0.6h-2.3c-1,0-1.7,0.3-2.2,0.8       C31.3,11.1,31,12,31,13.1z"/>
				</g>
				<g>
					<path class="st10" d="M48.9,7.6c1.5,0,2.7,0.5,3.6,1.4c0.9,0.9,1.3,2.4,1.3,4.3s-0.4,3.4-1.3,4.3c-0.9,0.9-2.1,1.4-3.6,1.4       h-2.4c-1.5,0-2.7-0.5-3.6-1.4c-0.9-0.9-1.3-2.4-1.3-4.3S42,9.9,42.9,9c0.9-0.9,2.1-1.4,3.6-1.4H48.9z M46.7,9.8       c-1,0-1.7,0.3-2.2,0.8s-0.7,1.4-0.7,2.7c0,1.2,0.2,2.1,0.7,2.7c0.5,0.5,1.2,0.8,2.2,0.8h2c1,0,1.7-0.3,2.2-0.8       c0.5-0.5,0.7-1.4,0.7-2.7c0-1.2-0.2-2.1-0.7-2.7c-0.5-0.5-1.2-0.8-2.2-0.8C48.7,9.8,46.7,9.8,46.7,9.8z"/>
				</g>
				<g>
					<path class="st10" d="M60.8,7.6c1.9,0,3.4,0.4,4.3,1.3s1.4,2.1,1.4,3.7V19h-2.3v-6.4c0-0.9-0.3-1.6-0.8-2.1       C62.8,10,62,9.8,60.8,9.8H57c-0.2,0-0.3,0.1-0.3,0.3V19h-2.3V9.4c0-0.7,0.1-1.1,0.4-1.4C55,7.7,55.5,7.6,56,7.6H60.8z"/>
				</g>
			</g>
			<g>
				<path class="st10" d="M20.8,8.3L20.8,8.3c-0.3,0.3-0.5,0.8-0.6,1.5h2.4V7.5C21.8,7.6,21.2,7.9,20.8,8.3z"/>
				<path class="st10" d="M22.7,11c0.1-0.5,0.4-0.9,0.9-1h-0.9V11z"/>
				<path class="st10" d="M20.1,13.6h2.5V10h-2.4c0,0.3-0.1,0.6-0.1,1V13.6z"/>
				<path class="st10" d="M22.7,7.5v2.4h5.4V7.5h-4.9C23.1,7.5,22.9,7.5,22.7,7.5z"/>
				<path class="st10" d="M11.1,7.1c0.1-0.1,0.3-0.2,0.5-0.2s0.3,0,0.4,0.1l-0.5-1.2L11.1,7.1z"/>
				<path class="st10" d="M11.6,5.4L12,4.3c-0.2,0-0.3,0-0.4,0c-0.1,0-0.3,0-0.5,0L11.6,5.4z"/>
				<path class="st10" d="M14.3,12.4l0.5,1.2h2.7l-2.8-7.4C14.3,5.4,14,5,13.6,4.8c-0.4-0.2-0.8-0.3-1.3-0.4l-0.5,1.3L14.3,12.4z"/>
				<polygon class="st10" points="6.2,19.2 7.3,16.3 4.6,16.3 3.5,19.2     "/>
				<path class="st10" d="M11,4.3c-0.5,0.1-0.9,0.2-1.3,0.4C9.3,4.9,9,5.3,8.7,5.8L6.2,12l-0.6,1.6h2.7l3.1-8L11,4.3z"/>
				<polygon class="st10" points="7.4,16.2 8.3,13.8 5.6,13.8 4.6,16.2     "/>
				<path class="st10" d="M19.3,16.7c-0.2,0-0.4-0.1-0.5-0.2l0,0l1,2.7c0.1,0,0.1,0,0.2,0v-2.9c0,0.1-0.1,0.1-0.1,0.2      C19.7,16.6,19.5,16.7,19.3,16.7z"/>
				<circle class="st10" cx="11.6" cy="15" r="1.3"/>
				<path class="st10" d="M14.8,13.7l1.5,3.8c0.2,0.3,0.5,0.7,0.8,1c0.5,0.5,1.2,0.7,2.3,0.7c0.1,0,0.1,0,0.2,0l0,0l-2.1-5.5      C17.5,13.7,14.8,13.7,14.8,13.7z"/>
				<path class="st10" d="M22.5,17.2c0.1-0.2,0.1-0.4,0.1-0.6v-2.9h-2.5v5.4c0.8-0.1,1.3-0.4,1.7-0.8C22.1,18,22.3,17.6,22.5,17.2z"/>
			</g>
		</g>
	</g>
</g>
<g class="st3">
	<path class="st4" d="M3.7,38.6h2.9v4.8c-0.8,0.3-1.7,0.5-2.6,0.5c-1.1,0-1.9-0.4-2.5-1.2s-0.9-2-0.9-3.6c0-1.5,0.3-2.7,1-3.5   s1.6-1.3,2.8-1.3c0.7,0,1.5,0.2,2.1,0.6L6,36.3c-0.5-0.3-1-0.5-1.5-0.5c-0.7,0-1.2,0.3-1.6,0.9c-0.4,0.6-0.6,1.4-0.6,2.4   s0.1,1.9,0.4,2.4C3,42.1,3.4,42.4,4,42.4c0.3,0,0.6,0,0.9-0.1v-2.1H3.7V38.6z"/>
	<path class="st4" d="M12.4,43.8l-0.5-2.4H9.4l-0.5,2.4H7.1l2.3-9.4h2.4l2.3,9.4C14.1,43.8,12.4,43.8,12.4,43.8z M11.5,39.9L11,37.7   c0-0.1-0.1-0.5-0.2-1c-0.1-0.5-0.2-0.9-0.2-1.1c-0.1,0.4-0.1,0.8-0.2,1.2c-0.1,0.4-0.3,1.5-0.7,3L11.5,39.9L11.5,39.9z"/>
	<path class="st4" d="M20.9,39c0,1.5-0.3,2.7-0.9,3.5s-1.5,1.2-2.7,1.2H15v-9.4h2.5c1.1,0,1.9,0.4,2.5,1.2S20.9,37.6,20.9,39z    M19.1,39.1c0-2.1-0.6-3.1-1.7-3.1h-0.7v6.3h0.6c0.6,0,1.1-0.3,1.4-0.8C19,41,19.1,40.2,19.1,39.1z"/>
	<path class="st4" d="M25.1,38.6H28v4.8c-0.8,0.3-1.7,0.5-2.6,0.5c-1.1,0-1.9-0.4-2.5-1.2s-0.9-2-0.9-3.6c0-1.5,0.3-2.7,1-3.5   s1.6-1.3,2.8-1.3c0.7,0,1.5,0.2,2.1,0.6l-0.6,1.4c-0.5-0.3-1-0.5-1.5-0.5c-0.7,0-1.2,0.3-1.6,0.9c-0.4,0.6-0.6,1.4-0.6,2.4   s0.1,1.9,0.4,2.4c0.3,0.6,0.7,0.8,1.2,0.8c0.3,0,0.6,0,0.9-0.1v-2.1h-1.2v-1.5H25.1z"/>
	<path class="st4" d="M33.6,43.8h-4.2v-9.4h4.2V36h-2.5v2.2h2.3v1.5h-2.3v2.6h2.5V43.8z"/>
	<path class="st4" d="M37.9,43.8h-1.7V36h-1.8v-1.5h5.3V36h-1.8V43.8z"/>
	<path class="st4" d="M48.2,41.2c0,0.9-0.2,1.5-0.7,2c-0.4,0.5-1.1,0.7-1.9,0.7c-0.8,0-1.5-0.2-2.1-0.5v-1.7   c0.7,0.5,1.3,0.7,1.9,0.7c0.3,0,0.6-0.1,0.8-0.3s0.3-0.4,0.3-0.8c0-0.3-0.1-0.6-0.3-0.9c-0.2-0.3-0.5-0.5-1-0.9   c-0.4-0.3-0.7-0.5-0.9-0.8s-0.4-0.5-0.5-0.9c-0.1-0.3-0.2-0.7-0.2-1.1c0-0.8,0.2-1.4,0.7-1.9s1-0.7,1.8-0.7c0.7,0,1.4,0.2,2.1,0.6   l-0.6,1.4c-0.2-0.1-0.4-0.2-0.6-0.3c-0.2-0.1-0.5-0.1-0.7-0.1c-0.3,0-0.5,0.1-0.7,0.3s-0.2,0.4-0.2,0.8c0,0.3,0.1,0.6,0.3,0.8   s0.5,0.5,1,0.8c0.6,0.4,1,0.8,1.3,1.3C48,40.2,48.2,40.7,48.2,41.2z"/>
	<path class="st4" d="M55.1,43.8h-1.7v-4.1h-2.3v4.1h-1.7v-9.4h1.7v3.7h2.3v-3.7h1.7V43.8z"/>
	<path class="st4" d="M63.2,39.1c0,1.6-0.3,2.7-0.9,3.6c-0.6,0.8-1.4,1.2-2.5,1.2s-1.9-0.4-2.5-1.2s-0.9-2-0.9-3.6   c0-1.5,0.3-2.7,0.9-3.6s1.4-1.2,2.5-1.2s1.9,0.4,2.5,1.2C62.9,36.4,63.2,37.6,63.2,39.1z M58.2,39.1c0,1.1,0.1,1.9,0.4,2.4   c0.3,0.6,0.7,0.8,1.2,0.8c1.1,0,1.6-1.1,1.6-3.3s-0.5-3.3-1.6-3.3c-0.5,0-0.9,0.3-1.2,0.8C58.4,37.2,58.2,38,58.2,39.1z"/>
	<path class="st4" d="M69.7,37.3c0,1-0.3,1.8-0.8,2.3s-1.2,0.8-2.2,0.8h-0.4v3.4h-1.7v-9.4H67C68.8,34.5,69.7,35.4,69.7,37.3z    M66.3,38.9h0.3c0.4,0,0.7-0.1,1-0.4c0.2-0.2,0.3-0.6,0.3-1.2c0-0.5-0.1-0.9-0.3-1.1S67.1,36,66.7,36h-0.4   C66.3,36,66.3,38.9,66.3,38.9z"/>
</g>
<g>
	<g class="st11">
		<path class="st8" d="M7.2,42.5c-0.3,0.3-0.7,0.6-1.2,0.8c-0.5,0.2-1,0.3-1.5,0.3c-0.9,0-1.7-0.3-2.2-0.9c-0.5-0.6-0.8-1.4-0.8-2.5    v-1.5c0-1.1,0.2-2,0.7-2.6c0.5-0.6,1.2-0.9,2.1-0.9c0.9,0,1.5,0.2,2,0.7c0.4,0.4,0.7,1.1,0.8,2.1H5.6c0-0.5-0.2-0.9-0.3-1.1    c-0.2-0.2-0.4-0.3-0.8-0.3c-0.4,0-0.8,0.2-1,0.5c-0.2,0.3-0.3,0.8-0.3,1.5V40c0,0.7,0.1,1.3,0.3,1.6c0.2,0.3,0.6,0.5,1.1,0.5    c0.3,0,0.6-0.1,0.8-0.2l0.1-0.1v-1.5H4.4v-1.2h2.8V42.5z"/>
		<path class="st8" d="M12.2,41.7H10l-0.4,1.7H7.8l2.5-8.1h1.5l2.6,8.1h-1.8L12.2,41.7z M10.4,40.3h1.5l-0.8-2.9L10.4,40.3z"/>
		<path class="st8" d="M15.2,43.4v-8.1h2.2c1,0,1.7,0.3,2.3,0.9c0.6,0.6,0.9,1.4,0.9,2.5v1.3c0,1.1-0.3,1.9-0.8,2.5    s-1.3,0.9-2.3,0.9H15.2z M16.8,36.6V42h0.5c0.5,0,0.9-0.1,1.2-0.4s0.3-0.8,0.4-1.5v-1.4c0-0.8-0.1-1.3-0.3-1.6    c-0.2-0.3-0.6-0.5-1.1-0.5H16.8z"/>
		<path class="st8" d="M27.2,42.5c-0.3,0.3-0.7,0.6-1.2,0.8c-0.5,0.2-1,0.3-1.5,0.3c-0.9,0-1.7-0.3-2.2-0.9    c-0.5-0.6-0.8-1.4-0.8-2.5v-1.5c0-1.1,0.2-2,0.7-2.6c0.5-0.6,1.2-0.9,2.1-0.9c0.9,0,1.5,0.2,2,0.7c0.4,0.4,0.7,1.1,0.8,2.1h-1.6    c0-0.5-0.2-0.9-0.3-1.1c-0.2-0.2-0.4-0.3-0.8-0.3c-0.4,0-0.8,0.2-1,0.5c-0.2,0.3-0.3,0.8-0.3,1.5V40c0,0.7,0.1,1.3,0.3,1.6    c0.2,0.3,0.6,0.5,1.1,0.5c0.3,0,0.6-0.1,0.8-0.2l0.1-0.1v-1.5h-1.2v-1.2h2.8V42.5z"/>
		<path class="st8" d="M32.6,39.9H30V42h3v1.4h-4.7v-8.1H33v1.4h-3v1.9h2.6V39.9z"/>
		<path class="st8" d="M39.4,36.6h-2v6.8h-1.6v-6.8h-2v-1.4h5.6V36.6z"/>
		<path class="st8" d="M46.1,41.2c0-0.3-0.1-0.6-0.3-0.8c-0.2-0.2-0.5-0.3-0.9-0.5c-0.8-0.3-1.4-0.7-1.8-1.1    c-0.4-0.4-0.5-0.9-0.5-1.5c0-0.7,0.2-1.2,0.7-1.7c0.5-0.4,1.1-0.6,1.9-0.6c0.5,0,0.9,0.1,1.3,0.3c0.4,0.2,0.7,0.5,0.9,0.9    c0.2,0.4,0.3,0.8,0.3,1.3h-1.6c0-0.4-0.1-0.7-0.2-0.9s-0.4-0.3-0.7-0.3c-0.3,0-0.5,0.1-0.7,0.3c-0.2,0.2-0.2,0.4-0.2,0.7    c0,0.2,0.1,0.4,0.3,0.6s0.5,0.4,1,0.6c0.8,0.3,1.4,0.6,1.7,1.1c0.4,0.4,0.5,0.9,0.5,1.6c0,0.7-0.2,1.3-0.7,1.7    c-0.5,0.4-1.1,0.6-1.8,0.6c-0.5,0-1-0.1-1.4-0.3c-0.4-0.2-0.8-0.5-1-0.9s-0.4-0.9-0.4-1.4H44c0,0.5,0.1,0.8,0.3,1    c0.2,0.2,0.5,0.3,0.9,0.3C45.8,42.2,46.1,41.9,46.1,41.2z"/>
		<path class="st8" d="M54.5,43.4h-1.6v-3.5h-2.4v3.5h-1.6v-8.1h1.6v3.3h2.4v-3.3h1.6V43.4z"/>
		<path class="st8" d="M61.6,40c0,1.1-0.3,1.9-0.8,2.5c-0.5,0.6-1.2,0.9-2.2,0.9c-0.9,0-1.6-0.3-2.2-0.9c-0.5-0.6-0.8-1.4-0.8-2.5    v-1.4c0-1.1,0.3-2,0.8-2.6c0.5-0.6,1.2-0.9,2.2-0.9c0.9,0,1.6,0.3,2.1,0.9c0.5,0.6,0.8,1.5,0.8,2.6V40z M59.9,38.7    c0-0.7-0.1-1.3-0.3-1.6s-0.5-0.5-1-0.5c-0.4,0-0.8,0.2-1,0.5s-0.3,0.9-0.3,1.6V40c0,0.7,0.1,1.2,0.3,1.6c0.2,0.3,0.5,0.5,1,0.5    c0.4,0,0.7-0.2,1-0.5s0.3-0.8,0.3-1.5V38.7z"/>
		<path class="st8" d="M64.4,40.5v2.9h-1.6v-8.1h2.8c0.8,0,1.4,0.2,1.9,0.8c0.5,0.5,0.7,1.1,0.7,1.9s-0.2,1.4-0.7,1.9    c-0.5,0.5-1.1,0.7-2,0.7H64.4z M64.4,39.1h1.1c0.3,0,0.6-0.1,0.7-0.3c0.2-0.2,0.3-0.5,0.3-0.9c0-0.4-0.1-0.7-0.3-1    c-0.2-0.2-0.4-0.4-0.7-0.4h-1.1V39.1z"/>
	</g>
</g>
</svg>