<?xml version="1.0" encoding="UTF-8"?>
<!-- Generator: Adobe Illustrator 19.2.0, SVG Export Plug-In . SVG Version: 6.00 Build 0)  -->
<svg version="1.1" xmlns="http://www.w3.org/2000/svg" xmlns:xlink="http://www.w3.org/1999/xlink" x="0px" y="0px" viewBox="0 0 142 25" style="enable-background:new 0 0 142 25;" xml:space="preserve">
<style type="text/css">
	.st0{display:none;}
	.st1{font-family:'NasalizationRg-Regular';}
	.st2{font-size:22.7581px;}
	.st3{letter-spacing:-1;}
	.st4{display:inline;fill:#666666;}
	.st5{display:none;fill:#666666;}
	.st6{font-family:'BebasKai';}
	.st7{font-size:16.9793px;}
	.st8{letter-spacing:1;}
	.st9{fill:#999999;}
	.st10{font-family:'OpenSans-CondensedBold';}
	.st11{font-size:13.374px;}
	.st12{clip-path:url(#SVGID_2_);}
	.st13{clip-path:url(#SVGID_4_);fill:#CC0000;}
	.st14{clip-path:url(#SVGID_4_);fill:#FFFFFF;}
</style>
<g id="Layer_1">
	<text transform="matrix(1 0 0 1 5.875 18.9082)" class="st0 st1 st2 st3">Argon</text>
	<g class="st0">
		<path class="st4" d="M72.5,8v0.7L71,8.8V8.2C71,7.4,70.7,7,70.1,7s-0.9,0.4-0.9,1v5.6c0,0.7,0.3,1,0.9,1s0.9-0.4,0.9-1.2v-1.8    h-0.9v-1.4h2.4v3.4c0,1.6-0.9,2.5-2.5,2.5c-1.5,0-2.4-0.9-2.4-2.5V8c0-1.6,0.9-2.5,2.4-2.5C71.6,5.5,72.5,6.5,72.5,8z"/>
		<path class="st4" d="M78.8,16l-0.3-2.3h-1.7L76.4,16h-1.6l1.8-10.3h2L80.4,16H78.8z M76.9,12.2h1.3l-0.6-4.3h0L76.9,12.2z"/>
		<path class="st4" d="M85.2,5.7c1.7,0,2.6,0.9,2.6,2.6v5.1c0,1.7-0.9,2.6-2.6,2.6h-2.2V5.7H85.2z M84.5,14.6h0.6    c0.8,0,1.1-0.4,1.1-1.3V8.4c0-0.9-0.3-1.3-1.1-1.3h-0.6V14.6z"/>
		<path class="st4" d="M95.5,8v0.7L94,8.8V8.2C94,7.4,93.7,7,93.1,7s-0.9,0.4-0.9,1v5.6c0,0.7,0.3,1,0.9,1c0.6,0,0.9-0.4,0.9-1.2    v-1.8h-0.9v-1.4h2.4v3.4c0,1.6-0.9,2.5-2.5,2.5c-1.5,0-2.4-0.9-2.4-2.5V8c0-1.6,0.9-2.5,2.4-2.5C94.6,5.5,95.5,6.5,95.5,8z"/>
		<path class="st4" d="M100,7.1v2.9h2.3v1.4H100v3.1h2.8V16h-4.4V5.7h4.4v1.4H100z"/>
		<path class="st4" d="M108.1,7.2V16h-1.6V7.2h-1.7V5.7h4.9v1.5H108.1z"/>
		<path class="st4" d="M116.4,7.9v0.3l-1.5,0.1V7.9c0-0.6-0.3-0.9-0.8-0.9c-0.5,0-0.8,0.3-0.8,0.9V8c0,0.6,0.3,1.1,1.3,2    c1.4,1.2,2,2.1,2,3.3v0.5c0,1.5-0.9,2.3-2.4,2.3s-2.4-0.8-2.4-2.3v-0.7l1.5-0.1v0.7c0,0.6,0.3,1,0.9,1c0.6,0,0.9-0.3,0.9-1v-0.3    c0-0.6-0.3-1.2-1.4-2c-1.4-1.2-1.9-2.1-1.9-3.3V7.9c0-1.5,0.8-2.3,2.3-2.3C115.5,5.5,116.4,6.4,116.4,7.9z"/>
	</g>
	<text transform="matrix(1 0 0 1 77.249 18.5498)" class="st5 st6 st7 st8">GADGETS</text>
	<g>
		<rect x="63" y="1.9" class="st9" width="0.2" height="17.8"/>
	</g>
	<text transform="matrix(1 0 0 1 65.5 -2.7389)" class="st0 st10 st11">Gadget Shop</text>
	<g>
		<g>
			<defs>
				<rect id="SVGID_1_" x="2" y="0.8" width="57" height="22.7"/>
			</defs>
			<clipPath id="SVGID_2_">
				<use xlink:href="#SVGID_1_" style="overflow:visible;"/>
			</clipPath>
			<g class="st12">
				<defs>
					<rect id="SVGID_3_" x="1.8" y="0.7" width="57.4" height="23"/>
				</defs>
				<clipPath id="SVGID_4_">
					<use xlink:href="#SVGID_3_" style="overflow:visible;"/>
				</clipPath>
				<path class="st13" d="M54.7,23.5H6.3c-2.4,0-4.3-1.9-4.3-4.3V5.1c0-2.4,1.9-4.3,4.3-4.3h48.4c2.4,0,4.3,1.9,4.3,4.3v14.1      C59,21.6,57.1,23.5,54.7,23.5"/>
				<polygon class="st14" points="36.3,17.7 39.1,17.7 39.1,18.3 37.1,18.3 37.1,18.8 39,18.8 39,19.4 37.1,19.4 37.1,20.3       36.3,20.3     "/>
				<path class="st14" d="M41.9,17.6c0.6,0,0.9,0,1.2,0c0.3,0,0.5,0.2,0.6,0.4c0,0.2,0.1,0.5,0.1,0.9c0,0.4,0,0.7-0.1,0.9      c-0.1,0.2-0.3,0.4-0.6,0.4c-0.2,0-0.6,0-1.1,0c-0.6,0-1,0-1.2,0c-0.3,0-0.5-0.2-0.6-0.4c0-0.2-0.1-0.5-0.1-0.9      c0-0.4,0-0.7,0.1-0.8c0.1-0.2,0.3-0.4,0.6-0.4C41,17.6,41.4,17.6,41.9,17.6 M41.9,18.3c-0.4,0-0.7,0-0.8,0      c-0.1,0-0.2,0.1-0.2,0.2c0,0.1,0,0.3,0,0.5c0,0.2,0,0.3,0,0.3c0,0.1,0.1,0.2,0.3,0.2c0.1,0,0.3,0,0.7,0c0.3,0,0.5,0,0.6,0      c0.1,0,0.2,0,0.2-0.1c0,0,0.1-0.1,0.1-0.2c0-0.1,0-0.2,0-0.3c0-0.2,0-0.3,0-0.4c0-0.1,0-0.2-0.1-0.2c0-0.1-0.1-0.1-0.2-0.1      C42.5,18.3,42.3,18.3,41.9,18.3"/>
				<path class="st14" d="M44.9,20.3v-2.6h1.9c0.4,0,0.7,0,0.8,0c0.1,0,0.2,0,0.3,0.1c0.1,0.1,0.2,0.1,0.2,0.2      c0,0.1,0.1,0.3,0.1,0.5c0,0.2,0,0.3,0,0.4c0,0.1-0.1,0.2-0.1,0.2c-0.1,0.1-0.2,0.1-0.3,0.1c0.2,0,0.3,0.1,0.4,0.1      c0,0,0.1,0.1,0.1,0.2c0,0.1,0,0.2,0,0.4v0.2h-0.8v-0.1c0-0.1,0-0.2,0-0.3c0-0.1,0-0.1-0.1-0.1c0,0-0.1-0.1-0.1-0.1      c-0.1,0-0.2,0-0.3,0h-1.1v0.7H44.9z M45.7,19h1.1c0.2,0,0.3,0,0.3,0c0,0,0.1,0,0.1,0c0,0,0.1-0.1,0.1-0.1c0,0,0-0.1,0-0.2      c0-0.1,0-0.1,0-0.2c0,0,0-0.1-0.1-0.1c0,0-0.1,0-0.1,0c0,0-0.1,0-0.3,0h-1.1V19z"/>
				<polygon class="st14" points="49.2,17.7 52.3,17.7 52.3,18.3 51.2,18.3 51.2,20.3 50.3,20.3 50.3,18.3 49.2,18.3     "/>
				<polygon class="st14" points="53.3,17.7 54.3,17.7 55.2,18.7 56,17.7 57,17.7 55.6,19.3 55.6,20.3 54.8,20.3 54.8,19.3     "/>
				<path class="st14" d="M32,6.8c1.2,0,2,0.3,2.6,1c0.6,0.7,0.9,1.7,0.9,3.1v5.5c0,0.7-0.1,1.3-0.2,1.7c-0.1,0.5-0.3,0.9-0.6,1.2      c-0.3,0.3-0.7,0.5-1.1,0.7c-0.5,0.1-1,0.2-1.7,0.2h-9.3v-1.9h9c0.7,0,1.2-0.2,1.5-0.5c0.3-0.3,0.4-0.8,0.4-1.5V16h-4.2      c-1.3,0-2.3-0.4-3.1-1.1c-0.7-0.8-1.1-1.9-1.1-3.5c0-1.6,0.4-2.7,1.1-3.5c0.7-0.8,1.8-1.1,3.1-1.1H32z M27.2,11.5      c0,1,0.2,1.7,0.6,2.1c0.4,0.4,1,0.7,1.8,0.7h4.1v-3.4c0-0.8-0.2-1.4-0.5-1.7c-0.3-0.4-0.9-0.5-1.7-0.5h-1.9      c-0.8,0-1.4,0.2-1.8,0.7C27.3,9.8,27.2,10.5,27.2,11.5"/>
				<path class="st14" d="M42.2,6.8c1.3,0,2.3,0.4,3,1.2c0.8,0.8,1.1,2,1.1,3.6c0,1.6-0.4,2.8-1.1,3.6c-0.8,0.8-1.8,1.2-3,1.2h-2      c-1.3,0-2.3-0.4-3.1-1.2c-0.7-0.8-1.1-2-1.1-3.6c0-1.6,0.4-2.8,1.1-3.6c0.7-0.8,1.8-1.2,3.1-1.2H42.2z M40.3,8.7      c-0.8,0-1.4,0.2-1.8,0.7c-0.4,0.5-0.6,1.2-0.6,2.3c0,1,0.2,1.8,0.6,2.2c0.4,0.5,1,0.7,1.8,0.7H42c0.8,0,1.4-0.2,1.8-0.7      c0.4-0.5,0.6-1.2,0.6-2.2c0-1-0.2-1.8-0.6-2.3c-0.4-0.5-1-0.7-1.8-0.7H40.3z"/>
				<path class="st14" d="M52.2,6.8c1.6,0,2.9,0.4,3.7,1.1C56.6,8.6,57,9.7,57,11v5.4h-1.9V11c0-0.8-0.2-1.3-0.7-1.7      c-0.5-0.4-1.2-0.6-2.2-0.6H49c-0.2,0-0.2,0.1-0.2,0.3v7.5h-1.9V8.3c0-0.6,0.1-1,0.3-1.2c0.2-0.2,0.6-0.3,1-0.3H52.2z"/>
				<path class="st14" d="M18.6,7.4L18.6,7.4c-0.3,0.3-0.5,0.7-0.5,1.3h2v-2C19.3,6.8,18.9,7.1,18.6,7.4"/>
				<path class="st14" d="M20.2,9.6c0.1-0.5,0.3-0.7,0.8-0.8h-0.8V9.6z"/>
				<path class="st14" d="M18,11.8h2.1v-3h-2c0,0.3,0,0.5,0,0.8V11.8z"/>
				<path class="st14" d="M20.2,6.7v2h4.6v-2h-4.1C20.5,6.7,20.4,6.7,20.2,6.7"/>
				<path class="st14" d="M10.4,6.4c0.1-0.1,0.2-0.2,0.4-0.2c0.1,0,0.3,0,0.4,0.1l-0.4-1L10.4,6.4z"/>
				<path class="st14" d="M10.8,4.9L11.2,4c-0.1,0-0.2,0-0.3,0c-0.1,0-0.2,0-0.4,0L10.8,4.9z"/>
				<path class="st14" d="M13.1,10.8l0.4,1h2.3l-2.4-6.3c-0.3-0.6-0.6-1-1-1.2C12,4.2,11.7,4.1,11.3,4l-0.4,1.1L13.1,10.8z"/>
				<polygon class="st14" points="6.3,16.5 7.2,14.2 4.9,14.2 4,16.5     "/>
				<path class="st14" d="M10.3,4C9.9,4.1,9.5,4.2,9.2,4.4c-0.3,0.2-0.6,0.5-0.9,1l-2,5.2l-0.5,1.3h2.3l2.6-6.7L10.3,4z"/>
				<polygon class="st14" points="7.3,14 8,12 5.7,12 4.9,14     "/>
				<path class="st14" d="M17.3,14.4c-0.2,0-0.3-0.1-0.5-0.2c0,0,0,0,0,0l0.9,2.3c0.1,0,0.1,0,0.2,0v-2.5c0,0-0.1,0.1-0.1,0.1      C17.6,14.4,17.4,14.4,17.3,14.4"/>
				<path class="st14" d="M10.8,11.9c-0.6,0-1.1,0.5-1.1,1.1c0,0.6,0.5,1.1,1.1,1.1c0.6,0,1.1-0.5,1.1-1.1      C11.9,12.4,11.4,11.9,10.8,11.9"/>
				<path class="st14" d="M13.5,12l1.2,3.2c0.2,0.3,0.4,0.6,0.6,0.8c0.4,0.4,1,0.6,1.9,0.6c0.1,0,0.1,0,0.2,0l0,0L15.8,12H13.5z"/>
				<path class="st14" d="M19.9,14.9c0-0.1,0.1-0.3,0.1-0.5l0-2.5H18v4.6c0.7-0.1,1.1-0.3,1.4-0.7C19.7,15.6,19.8,15.3,19.9,14.9"/>
			</g>
		</g>
	</g>
	<g class="st0">
		<path class="st4" d="M69.3,11h2.9v4.9c-0.8,0.3-1.7,0.5-2.6,0.5c-1.1,0-1.9-0.4-2.5-1.3c-0.6-0.8-0.9-2-0.9-3.6    c0-1.5,0.3-2.7,1-3.6s1.6-1.3,2.8-1.3c0.8,0,1.5,0.2,2.2,0.6l-0.6,1.4c-0.5-0.3-1-0.5-1.5-0.5c-0.7,0-1.2,0.3-1.6,0.9    c-0.4,0.6-0.6,1.4-0.6,2.4c0,1.1,0.1,1.9,0.4,2.4c0.3,0.6,0.7,0.8,1.2,0.8c0.3,0,0.6,0,0.9-0.1v-2.2h-1.2V11z"/>
		<path class="st4" d="M78.1,16.2l-0.5-2.4h-2.5l-0.5,2.4h-1.8l2.3-9.5h2.4l2.3,9.5H78.1z M77.2,12.3l-0.5-2.2c0-0.1-0.1-0.5-0.2-1    c-0.1-0.5-0.2-0.9-0.2-1.1c-0.1,0.4-0.1,0.8-0.2,1.2c-0.1,0.4-0.3,1.5-0.7,3.1H77.2z"/>
		<path class="st4" d="M86.7,11.4c0,1.6-0.3,2.8-1,3.6c-0.6,0.8-1.6,1.2-2.7,1.2h-2.3V6.8h2.5c1.1,0,2,0.4,2.6,1.2    S86.7,10,86.7,11.4z M84.9,11.5c0-2.1-0.6-3.2-1.7-3.2h-0.7v6.4H83c0.6,0,1.1-0.3,1.4-0.8C84.7,13.4,84.9,12.6,84.9,11.5z"/>
		<path class="st4" d="M90.9,11h2.9v4.9c-0.8,0.3-1.7,0.5-2.6,0.5c-1.1,0-1.9-0.4-2.5-1.3c-0.6-0.8-0.9-2-0.9-3.6    c0-1.5,0.3-2.7,1-3.6c0.7-0.9,1.6-1.3,2.8-1.3c0.8,0,1.5,0.2,2.2,0.6l-0.6,1.4c-0.5-0.3-1-0.5-1.5-0.5c-0.7,0-1.2,0.3-1.6,0.9    c-0.4,0.6-0.6,1.4-0.6,2.4c0,1.1,0.1,1.9,0.4,2.4c0.3,0.6,0.7,0.8,1.2,0.8c0.3,0,0.6,0,0.9-0.1v-2.2h-1.2V11z"/>
		<path class="st4" d="M99.5,16.2h-4.3V6.8h4.3v1.5H97v2.3h2.3v1.5H97v2.6h2.5V16.2z"/>
		<path class="st4" d="M103.8,16.2h-1.8V8.3h-1.8V6.8h5.4v1.5h-1.8V16.2z"/>
		<path class="st4" d="M114.7,13.6c0,0.9-0.2,1.6-0.7,2c-0.4,0.5-1.1,0.7-1.9,0.7c-0.8,0-1.5-0.2-2.1-0.5v-1.7    c0.7,0.5,1.4,0.7,1.9,0.7c0.3,0,0.6-0.1,0.8-0.3c0.2-0.2,0.3-0.4,0.3-0.8c0-0.3-0.1-0.6-0.3-0.9c-0.2-0.3-0.5-0.6-1-0.9    c-0.4-0.3-0.7-0.5-0.9-0.8s-0.4-0.5-0.5-0.9c-0.1-0.3-0.2-0.7-0.2-1.1c0-0.8,0.2-1.5,0.7-1.9s1.1-0.7,1.8-0.7    c0.7,0,1.4,0.2,2.1,0.6l-0.6,1.4c-0.2-0.1-0.4-0.2-0.7-0.3c-0.2-0.1-0.5-0.1-0.7-0.1c-0.3,0-0.5,0.1-0.7,0.3s-0.2,0.4-0.2,0.8    c0,0.3,0.1,0.6,0.3,0.8c0.2,0.2,0.5,0.5,1,0.8c0.6,0.4,1,0.8,1.3,1.3C114.6,12.6,114.7,13.1,114.7,13.6z"/>
		<path class="st4" d="M121.7,16.2h-1.8v-4.1h-2.3v4.1h-1.8V6.8h1.8v3.8h2.3V6.8h1.8V16.2z"/>
		<path class="st4" d="M129.9,11.5c0,1.6-0.3,2.8-0.9,3.6c-0.6,0.8-1.4,1.3-2.5,1.3c-1.1,0-1.9-0.4-2.5-1.3c-0.6-0.8-0.9-2-0.9-3.6    c0-1.6,0.3-2.8,0.9-3.6c0.6-0.8,1.4-1.3,2.5-1.3c1.1,0,1.9,0.4,2.5,1.3C129.6,8.7,129.9,9.9,129.9,11.5z M124.9,11.5    c0,1.1,0.1,1.9,0.4,2.5c0.3,0.6,0.7,0.8,1.2,0.8c1.1,0,1.6-1.1,1.6-3.3c0-2.2-0.5-3.3-1.6-3.3c-0.5,0-0.9,0.3-1.2,0.8    S124.9,10.4,124.9,11.5z"/>
		<path class="st4" d="M136.4,9.7c0,1-0.3,1.8-0.8,2.3c-0.5,0.5-1.2,0.8-2.2,0.8H133v3.4h-1.8V6.8h2.4    C135.5,6.8,136.4,7.8,136.4,9.7z M133,11.3h0.3c0.4,0,0.8-0.1,1-0.4s0.3-0.6,0.3-1.2c0-0.5-0.1-0.9-0.3-1.1    c-0.2-0.2-0.5-0.4-0.9-0.4H133V11.3z"/>
	</g>
</g>
<g id="Layer_2">
	<g>
		<path class="st9" d="M72.2,14.6c-0.3,0.4-0.7,0.6-1.2,0.8c-0.5,0.2-1,0.3-1.6,0.3c-1,0-1.8-0.3-2.3-0.9c-0.5-0.6-0.8-1.5-0.8-2.7    v-1.5c0-1.2,0.3-2.1,0.8-2.7c0.5-0.6,1.3-1,2.3-1c0.9,0,1.6,0.2,2.1,0.7c0.5,0.5,0.7,1.2,0.8,2.2h-1.7c0-0.5-0.2-0.9-0.3-1.1    s-0.5-0.3-0.9-0.3c-0.5,0-0.8,0.2-1,0.5S68,9.7,68,10.4V12c0,0.8,0.1,1.4,0.4,1.7c0.2,0.4,0.6,0.5,1.2,0.5c0.3,0,0.6-0.1,0.8-0.2    l0.2-0.1v-1.6h-1.2V11h3V14.6z"/>
		<path class="st9" d="M77.6,13.8h-2.4l-0.5,1.8h-1.8l2.7-8.6h1.6l2.7,8.6H78L77.6,13.8z M75.6,12.3h1.6l-0.8-3.1L75.6,12.3z"/>
		<path class="st9" d="M80.7,15.6V6.9H83c1,0,1.8,0.3,2.4,1c0.6,0.6,0.9,1.5,0.9,2.6v1.4c0,1.1-0.3,2-0.9,2.7s-1.4,1-2.5,1H80.7z     M82.4,8.4v5.7H83c0.6,0,1-0.2,1.2-0.5s0.4-0.8,0.4-1.6v-1.5c0-0.8-0.1-1.4-0.3-1.7s-0.6-0.5-1.1-0.5H82.4z"/>
		<path class="st9" d="M93.4,14.6c-0.3,0.4-0.7,0.6-1.2,0.8c-0.5,0.2-1,0.3-1.6,0.3c-1,0-1.8-0.3-2.3-0.9c-0.5-0.6-0.8-1.5-0.8-2.7    v-1.5c0-1.2,0.3-2.1,0.8-2.7c0.5-0.6,1.3-1,2.3-1c0.9,0,1.6,0.2,2.1,0.7C93,8,93.3,8.7,93.4,9.7h-1.7c0-0.5-0.2-0.9-0.3-1.1    s-0.5-0.3-0.9-0.3c-0.5,0-0.8,0.2-1,0.5s-0.3,0.9-0.3,1.6V12c0,0.8,0.1,1.4,0.4,1.7s0.6,0.5,1.2,0.5c0.3,0,0.6-0.1,0.8-0.2    l0.2-0.1v-1.6h-1.2V11h3V14.6z"/>
		<path class="st9" d="M99.1,11.8h-2.7v2.3h3.2v1.4h-4.9V6.9h4.9v1.4h-3.2v2h2.7V11.8z"/>
		<path class="st9" d="M106.2,8.4h-2.1v7.2h-1.7V8.4h-2.1V6.9h6V8.4z"/>
		<path class="st9" d="M113.3,13.3c0-0.3-0.1-0.6-0.3-0.8c-0.2-0.2-0.5-0.4-1-0.6c-0.9-0.3-1.5-0.7-1.9-1.1c-0.4-0.4-0.6-1-0.6-1.6    c0-0.7,0.3-1.3,0.8-1.7s1.2-0.7,2-0.7c0.5,0,1,0.1,1.4,0.3c0.4,0.2,0.7,0.5,1,0.9c0.2,0.4,0.3,0.9,0.3,1.4h-1.7    c0-0.4-0.1-0.7-0.3-0.9c-0.2-0.2-0.4-0.3-0.7-0.3c-0.3,0-0.5,0.1-0.7,0.3s-0.3,0.4-0.3,0.7c0,0.2,0.1,0.5,0.3,0.6    c0.2,0.2,0.5,0.4,1,0.6c0.8,0.3,1.5,0.7,1.8,1.1c0.4,0.4,0.6,1,0.6,1.7c0,0.7-0.2,1.3-0.7,1.8c-0.5,0.4-1.1,0.6-1.9,0.6    c-0.6,0-1.1-0.1-1.5-0.3s-0.8-0.6-1.1-1c-0.3-0.4-0.4-0.9-0.4-1.5h1.7c0,0.5,0.1,0.9,0.3,1.1c0.2,0.2,0.5,0.3,0.9,0.3    C113,14.3,113.3,13.9,113.3,13.3z"/>
		<path class="st9" d="M122.3,15.6h-1.7v-3.7H118v3.7h-1.7V6.9h1.7v3.5h2.6V6.9h1.7V15.6z"/>
		<path class="st9" d="M129.7,12c0,1.2-0.3,2.1-0.8,2.7c-0.5,0.6-1.3,1-2.3,1c-1,0-1.7-0.3-2.3-0.9c-0.6-0.6-0.8-1.5-0.8-2.7v-1.5    c0-1.2,0.3-2.1,0.8-2.8s1.3-1,2.3-1c1,0,1.7,0.3,2.3,1s0.8,1.6,0.8,2.7V12z M128,10.6c0-0.8-0.1-1.4-0.3-1.7    c-0.2-0.4-0.6-0.6-1-0.6c-0.5,0-0.8,0.2-1,0.5c-0.2,0.4-0.3,0.9-0.3,1.7V12c0,0.8,0.1,1.3,0.3,1.7s0.6,0.5,1,0.5    c0.5,0,0.8-0.2,1-0.5c0.2-0.3,0.3-0.9,0.3-1.6V10.6z"/>
		<path class="st9" d="M132.7,12.5v3H131V6.9h2.9c0.9,0,1.5,0.3,2,0.8c0.5,0.5,0.8,1.2,0.8,2.1c0,0.8-0.2,1.5-0.8,2    c-0.5,0.5-1.2,0.7-2.1,0.7H132.7z M132.7,11.1h1.2c0.3,0,0.6-0.1,0.8-0.3s0.3-0.5,0.3-0.9c0-0.4-0.1-0.8-0.3-1    c-0.2-0.3-0.4-0.4-0.7-0.4h-1.2V11.1z"/>
	</g>
</g>
</svg>