<?xml version="1.0" encoding="UTF-8"?>
<!-- Generator: Adobe Illustrator 19.2.0, SVG Export Plug-In . SVG Version: 6.00 Build 0)  -->
<svg version="1.1" xmlns="http://www.w3.org/2000/svg" xmlns:xlink="http://www.w3.org/1999/xlink" x="0px" y="0px" viewBox="0 0 30 25" style="enable-background:new 0 0 30 25;" xml:space="preserve">
<style type="text/css">
	.st0{display:none;}
	.st1{display:inline;}
	.st2{fill:none;stroke:#FFFFFF;stroke-width:0.1;stroke-miterlimit:10;}
	.st3{fill:#34495E;}
	.st4{fill:#CC1009;}
	.st5{fill:#FFFFFF;}
</style>
<g id="Layer_2" class="st0">
	<rect x="-4.670186" y="4.314889" class="st1" width="37.422642" height="23.734983"/>
</g>
<g id="Layer_1" class="st0">
	<g class="st1">
		<line class="st2" x1="12.792021" y1="14.949194" x2="7.241392" y2="14.949194"/>
		<line class="st2" x1="12.93778" y1="17.628714" x2="6.194385" y2="17.628714"/>
		<line class="st2" x1="19.605053" y1="17.628714" x2="12.93778" y2="17.628714"/>
		<path class="st3" d="M22.635204,8.462335c-1.214487,0-2.093512,0.299531-2.612301,0.890339    c-0.513134,0.58408-0.773371,1.50668-0.773371,2.742113v2.738523H19.24943l0.018368,2.258131    c0,0.262896-0.077425,0.475035-0.231735,0.637371c-0.154713,0.162201-0.347668,0.243299-0.579401,0.243299    c-0.216629,0-0.394068-0.057968-0.533136-0.173765c-0.139069-0.115934-0.21487-0.275188-0.292025-0.476168l-0.933903-2.481442    h0.000042l-0.001535-0.003969l-0.001301-0.003457h-0.000036l-2.964666-7.667564    c-0.269258-0.718173-0.662058-1.223202-1.178249-1.515089c-0.516192-0.291733-1.17091-0.437602-1.963853-0.437602    c-0.807923,0-1.470136,0.145868-1.986325,0.437602C8.085482,5.942543,7.685035,6.447572,7.400946,7.165745L2.081698,20.63213    h2.917796L9.802398,8.445063c0.149536-0.344027,0.403962-0.516192,0.763125-0.516192    c0.359164,0,0.605946,0.172165,0.740648,0.516192l2.44835,6.388247h-0.000377l1.086756,2.90707    c0.308958,0.896317,0.737659,1.603222,1.28631,2.12071c0.548378,0.517492,1.34795,0.776442,2.398983,0.776442    c1.15881,0,2.027916-0.312834,2.607452-0.938643c0.579403-0.625799,0.869104-1.456261,0.869104-2.49165l-0.021288-2.37393    h-0.000519V12.45395c0-0.921071,0.429037-1.35011,1.350111-1.35011h4.35062V8.462335H22.635204z"/>
		<g>
			<path class="st3" d="M19.267797,17.09144c0,0.262896-0.077427,0.475035-0.231733,0.637373     c-0.154716,0.162199-0.34767,0.243298-0.579403,0.243298c-0.216629,0-0.39407-0.057966-0.533136-0.173765     c-0.139069-0.115932-0.21487-0.275188-0.292025-0.476168l-0.936697-2.488867h-2.940659l1.086757,2.907068     c0.308958,0.896317,0.737658,1.603222,1.286309,2.120712c0.548378,0.517492,1.34795,0.776442,2.398983,0.776442     c1.158808,0,2.027914-0.312836,2.607452-0.938643c0.579401-0.625801,0.869104-1.456264,0.869104-2.49165l-0.021288-2.37393     H19.24943L19.267797,17.09144z"/>
		</g>
		<g>
			<line class="st2" x1="1.156996" y1="22.971521" x2="9.362079" y2="2.028478"/>
			<line class="st2" x1="4.109009" y1="22.919649" x2="12.374646" y2="2.028478"/>
			<line class="st2" x1="19.731972" y1="22.971521" x2="11.819523" y2="2.028478"/>
			<line class="st2" x1="16.900242" y1="22.971521" x2="8.786815" y2="2.028478"/>
			<line class="st2" x1="19.277815" y1="7.796258" x2="19.277815" y2="22.971521"/>
			<line class="st2" x1="21.957335" y1="7.796258" x2="21.957335" y2="22.971521"/>
			<line class="st2" x1="29.466652" y1="8.432076" x2="18.00618" y2="8.432076"/>
			<line class="st2" x1="29.466652" y1="11.111596" x2="18.00618" y2="11.111596"/>
		</g>
		<circle class="st3" cx="10.573692" cy="16.290592" r="1.268481"/>
		<line class="st2" x1="7.241392" y1="14.949194" x2="0.533348" y2="14.949194"/>
		<line class="st2" x1="6.194385" y1="17.628714" x2="0.533348" y2="17.628714"/>
		<line class="st2" x1="17.229359" y1="14.949194" x2="12.792021" y2="14.949194"/>
		<line class="st2" x1="21.958334" y1="14.949194" x2="17.229359" y2="14.949194"/>
	</g>
</g>
<g id="Layer_3">
	<circle class="st4" cx="15" cy="12.5" r="12.451808"/>
	<g>
		<path class="st5" d="M19.760157,9.740752l-0.002802,0.003549c-0.271021,0.270835-0.435204,0.661585-0.515707,1.227536h1.946278    V9.059181C20.505795,9.140059,20.025389,9.369428,19.760157,9.740752z"/>
		<path class="st5" d="M21.314564,11.883874c0.067497-0.438613,0.31377-0.698404,0.733051-0.785212h-0.733051V11.883874z"/>
		<path class="st5" d="M19.182812,13.993048h2.005114v-2.894385h-1.962528c-0.028576,0.249355-0.042585,0.514773-0.042585,0.810451    V13.993048z"/>
		<path class="st5" d="M21.314564,9.046293v1.925544h4.439266v-1.94777h-3.977167    C21.629292,9.024067,21.477812,9.031351,21.314564,9.046293z"/>
		<path class="st5" d="M11.803025,8.722786c0.104224-0.118608,0.236466-0.189772,0.436511-0.189772    c0.131309,0,0.250662,0.032874,0.350404,0.096193l-0.373192-0.963612L11.803025,8.722786z"/>
		<path class="st5" d="M12.217683,7.315938l0.349844-0.894129c-0.127012-0.012888-0.229369-0.018678-0.327991-0.018678    c-0.113937,0-0.228622,0.005977-0.367962,0.019238L12.217683,7.315938z"/>
		<path class="st5" d="M14.427883,13.027007l0.378235,0.966041h2.185171l-2.296307-6.070252    c-0.296425-0.630765-0.577346-0.977808-0.93877-1.158426c-0.336022-0.168105-0.691657-0.278867-1.057751-0.329112    l-0.413164,1.05551L14.427883,13.027007z"/>
		<polygon class="st5" points="7.808115,18.579685 8.711583,16.271797 6.47598,16.271797 5.581104,18.579685   "/>
		<path class="st5" d="M11.740453,6.434511c-0.388695,0.049311-0.745637,0.157271-1.090625,0.329858    c-0.324442,0.162314-0.595277,0.468077-0.828195,0.935221L7.84323,12.745712l-0.496842,1.281704h2.243821l2.558925-6.536649    L11.740453,6.434511z"/>
		<polygon class="st5" points="8.76407,16.137688 9.538844,14.158911 7.295396,14.158911 6.528093,16.137688   "/>
		<path class="st5" d="M18.487045,16.532173c-0.151854,0-0.302774-0.07546-0.448839-0.148306    c-0.002802-0.001495-0.005789-0.002989-0.008591-0.004482l0.835293,2.207771    c0.057901-0.003363,0.118607-0.008593,0.187902-0.01569v-2.396049c-0.029884,0.044081-0.065561,0.087042-0.10796,0.129253    C18.793743,16.455591,18.639833,16.532173,18.487045,16.532173z"/>
		<circle class="st5" cx="12.239396" cy="15.151101" r="1.04631"/>
		<path class="st5" d="M14.851132,14.120434l1.203441,3.109186c0.171654,0.283161,0.375994,0.54167,0.624788,0.790838    c0.393366,0.393364,0.99107,0.57641,1.880716,0.57641c0.055475,0,0.10796-0.001867,0.160633-0.004108l0.010086-0.000374    l-1.691504-4.471952H14.851132z"/>
		<path class="st5" d="M21.075108,17.001745c0.04707-0.141956,0.084053-0.298853,0.11319-0.479658l-0.000372-2.401653h-2.008476    v4.437584c0.631886-0.083677,1.079231-0.30072,1.406288-0.682131C20.802217,17.622984,20.966961,17.328987,21.075108,17.001745z"/>
	</g>
</g>
</svg>